<?xml version="1.0" encoding="utf-8"?>
<!-- Generator: Adobe Illustrator 25.3.1, SVG Export Plug-In . SVG Version: 6.00 Build 0)  -->
<svg version="1.1" id="Layer_1" xmlns="http://www.w3.org/2000/svg" xmlns:xlink="http://www.w3.org/1999/xlink" x="0px" y="0px"
	 viewBox="0 0 800 800" style="enable-background:new 0 0 800 800;" xml:space="preserve">
<style type="text/css">
	.st0{fill:#FFFFFF;}
</style>
<g>
	<g>
		<g>
			<path class="st0" d="M231.8,263.6c0,0-16.6,0-30.8,14.2v-59.2h-37.9v153.9h37.9v-11.8c0,0,9.5,16.6,30.8,16.6
				c0,0,52.1-2.4,52.1-56.8C284,320.5,281.6,263.6,231.8,263.6z M222.4,344.1c-14.2,0-23.7-9.5-23.7-23.7c0-14.2,9.5-23.7,23.7-23.7
				c14.2,0,23.7,9.5,23.7,23.7C246.1,334.7,236.6,344.1,222.4,344.1z"/>
			<path class="st0" d="M295.8,216.3v35.5c0,0,16.6,0,16.6,30.8v90h35.5v-99.5C347.9,273.1,347.9,216.3,295.8,216.3z"/>
			<path class="st0" d="M435.5,263.6c0,0-61.6,0-61.6,56.8c0,0-2.4,56.8,61.6,56.8c0,0,61.6,0,61.6-56.8
				C497.1,320.5,499.5,263.6,435.5,263.6z M435.5,344.1c-14.2,0-23.7-9.5-23.7-23.7c0-14.2,9.5-23.7,23.7-23.7s23.7,9.5,23.7,23.7
				C459.2,334.7,447.4,344.1,435.5,344.1z"/>
			<path class="st0" d="M598.9,268.4v9.5c0,0-9.5-14.2-30.8-14.2c0,0-52.1-2.4-52.1,56.8c0,0,0,54.5,49.7,54.5c0,0,21.3,0,33.2-14.2
				v9.5c0,0,2.4,26.1-23.7,26.1h-9.5v33.2H580c0,0,54.5,0,54.5-56.8V268.4H598.9z M577.6,344.1c-14.2,0-23.7-9.5-23.7-23.7
				c0-14.2,9.5-23.7,23.7-23.7s23.7,9.5,23.7,23.7C601.3,334.7,589.5,344.1,577.6,344.1z"/>
		</g>
	</g>
	<path class="st0" d="M676.9,50H123.1C82.7,50,50,82.7,50,123.1v553.7c0,40.4,32.7,73.1,73.1,73.1h553.7c40.4,0,73.1-32.7,73.1-73.1
		V123.1C750,82.7,717.3,50,676.9,50z M700.8,426.2c0,52.1-42.6,94.7-94.7,94.7H463.9l-47.4,78.2c0,0,0,0-2.4,2.4
		c-2.4,4.7-7.1,7.1-14.2,7.1c-7.1,0-11.8-2.4-14.2-7.1c0-2.4-2.4-2.4-2.4-2.4l-47.4-78.2H194c-52.1,0-94.7-42.6-94.7-94.7V198.8
		c0-52.1,42.6-94.7,94.7-94.7H606c52.1,0,94.7,42.6,94.7,94.7V426.2z"/>
</g>
</svg>
