<?xml version="1.0" encoding="utf-8"?>
<!-- Generator: Adobe Illustrator 25.3.1, SVG Export Plug-In . SVG Version: 6.00 Build 0)  -->
<svg version="1.1" xmlns="http://www.w3.org/2000/svg" xmlns:xlink="http://www.w3.org/1999/xlink" x="0px" y="0px"
	 viewBox="0 0 1200 1200" style="enable-background:new 0 0 1200 1200;" xml:space="preserve">
<style type="text/css">
	.st0{fill:none;stroke:#FFFFFF;stroke-width:28;stroke-linecap:round;stroke-linejoin:round;stroke-miterlimit:10;}
</style>
<g id="Background">
</g>
<g id="Graphic_Elements">
	<g>
		<path class="st0" d="M912.6,350.7L912.6,350.7c0.1-2.1,0.1-4.3,0.1-6.5c0-86.9-73.3-162.3-163.8-162.3
			c-66.1,0-123.1,42.6-148.9,96.8h0c-25.9-54.2-82.8-96.8-148.9-96.8c-90.5,0-163.8,75.4-163.8,162.3c0,2.2,0.1,4.3,0.2,6.5h0
			c0,0-9.2,103.3,105.7,216.1c52.3,52.4,110.7,102.1,206.9,180.3c96.2-78.2,154.6-128,206.9-180.3
			C921.8,454,912.6,350.7,912.6,350.7z"/>
		<g>
			<path class="st0" d="M200.8,738.5c0,0-33.5-66.9-55-84.8c-21.5-17.9-11.9-43,27.5-37c39.4,6,93.2,76.5,119.5,108.7
				C319.1,757.6,349,760,349,760c96.8,14.3,125.2,21.2,178.2,104.8c68.1,107.5,16.7,157.7-55,153c-71.7-4.8-109.9-40.6-109.9-40.6
				S260.6,912.9,221.1,895c-39.4-17.9-126.7-200.7-147-249.7c-20.3-49-4.8-223.5,23.9-222.3c28.7,1.2,44.2,17.9,44.2,81.3
				c0,63.3,6,93.2,6,93.2"/>
			<path class="st0" d="M999.2,738.5c0,0,33.5-66.9,55-84.8c21.5-17.9,11.9-43-27.5-37c-39.4,6-93.2,76.5-119.5,108.7
				C880.9,757.6,851,760,851,760c-96.8,14.3-125.2,21.2-178.2,104.8c-68.1,107.5-16.7,157.7,55,153c71.7-4.8,109.9-40.6,109.9-40.6
				s101.7-64.2,141.1-82.1c39.4-17.9,126.7-200.7,147-249.7c20.3-49,4.8-223.5-23.9-222.3c-28.7,1.2-44.2,17.9-44.2,81.3
				c0,63.3-6,93.2-6,93.2"/>
		</g>
	</g>
</g>
</svg>
