<?xml version="1.0" encoding="utf-8"?>
<!-- Generator: Adobe Illustrator 25.3.1, SVG Export Plug-In . SVG Version: 6.00 Build 0)  -->
<svg version="1.1" xmlns="http://www.w3.org/2000/svg" xmlns:xlink="http://www.w3.org/1999/xlink" x="0px" y="0px"
	 viewBox="0 0 1200 1200" style="enable-background:new 0 0 1200 1200;" xml:space="preserve">
<style type="text/css">
	.st0{fill:none;stroke:#FFFFFF;stroke-width:28;stroke-linecap:round;stroke-linejoin:round;stroke-miterlimit:10;}
</style>
<g id="Background">
</g>
<g id="Graphic_Elements">
	<g>
		<g>
			<g>
				<path class="st0" d="M953.3,185.7c0,0-411.3-65.6-346.4,346.4C1018.9,597,953.3,185.7,953.3,185.7z"/>
				<line class="st0" x1="845.9" y1="293.2" x2="606.9" y2="532.1"/>
			</g>
			<g>
				<path class="st0" d="M246.7,185.7c0,0,411.3-65.6,346.4,346.4C181.1,597,246.7,185.7,246.7,185.7z"/>
				<line class="st0" x1="368" y1="307.1" x2="593.1" y2="532.1"/>
			</g>
			<path class="st0" d="M625.7,707.1c-6.7-38.3-13.6-96.8-16.2-182.3h-18.9c-3.2,103.6-12.6,167.5-20.4,203.9
				C570.1,728.6,603.6,718.5,625.7,707.1z"/>
		</g>
		<g>
			<path class="st0" d="M413.4,787.9l-131-79.2c-40.7-25.1-94.1-12.4-119.2,28.3l0,0c-14.3,23.2-7.1,53.7,16.2,68l110.3,68.2
				l146.1,90c112,69,265.7,71.2,375.3,16.4c0,0,103.2-57.6,233.2-40.1V679.3l-99-54.8c-110.5-61.7-251.6,43.2-251.6,43.2
				c-53.8,35.4-99.2,58.3-161.8,70.2c-23.3,4.4-52,4.1-73.3,13.6c-26.5,11.7-47.9,31.8-54.6,60.8c-4.7,20.4,4.1,45.8,21.7,57.6
				c23.8,16,59.5,10.4,85.9,7c65.2-8.4,129.3-26.1,190.4-50.4c0.8-0.3,1.6-0.6,2.4-0.9"/>
			<path class="st0" d="M464.4,749.1l-142.2-83.4c-36-22.2-83.2-11-105.4,25l-3.9,8.4"/>
			<path class="st0" d="M546.6,735l-162.7-96c-32.6-20.1-74.3-12.8-98.4,15.4"/>
		</g>
	</g>
</g>
</svg>
