<?xml version="1.0" encoding="utf-8"?>
<!-- Generator: Adobe Illustrator 25.3.1, SVG Export Plug-In . SVG Version: 6.00 Build 0)  -->
<svg version="1.1" id="Layer_1" xmlns="http://www.w3.org/2000/svg" xmlns:xlink="http://www.w3.org/1999/xlink" x="0px" y="0px"
	 viewBox="0 0 800 800" style="enable-background:new 0 0 800 800;" xml:space="preserve">
<style type="text/css">
	.st0{fill:#FFFFFF;}
</style>
<path class="st0" d="M675,50H125c-41.4,0-75,33.6-75,75v550c0,41.4,33.6,75,75,75h286.7V447h-43.2c-23.9,0-43.2-19.3-43.2-43.2
	c0-23.9,19.3-43.2,43.2-43.2h43.2v-64.9c0-83.6,67.8-151.5,151.5-151.5h26c23.9,0,43.2,19.3,43.2,43.2c0,23.9-19.3,43.2-43.2,43.2
	h-26c-35.8,0-64.9,29.1-64.9,64.9v64.9h90.9c23.9,0,43.2,19.3,43.2,43.2c0,23.9-19.3,43.2-43.2,43.2h-90.9V750H675
	c41.4,0,75-33.6,75-75V125C750,83.6,716.4,50,675,50z"/>
</svg>
