<?xml version="1.0" encoding="utf-8"?>
<!-- Generator: Adobe Illustrator 25.3.1, SVG Export Plug-In . SVG Version: 6.00 Build 0)  -->
<svg version="1.1" id="Layer_1" xmlns="http://www.w3.org/2000/svg" xmlns:xlink="http://www.w3.org/1999/xlink" x="0px" y="0px"
	 viewBox="0 0 128 31" style="enable-background:new 0 0 128 31;" xml:space="preserve">
<style type="text/css">
	.st0{fill:#4D4D4F;}
	.st1{fill:#EF4123;}
</style>
<g>
	<path class="st0" d="M95.9,23.1h1.4v0.4c0,0.3-0.2,0.5-0.5,0.5h-0.9v2c0,0.3-0.2,0.5-0.5,0.5h-1v-1c-0.5,0.5-1.2,0.8-2.3,0.8h-4
		c-0.3,0-0.5-0.2-0.5-0.5v-0.4h1.6V23h1c0.3,0,0.5,0.2,0.5,0.5v1.9h1.2c1.4,0,2.5-0.3,2.5-1.2v-3h1c0.3,0,0.5,0.2,0.5,0.5
		C95.9,21.6,95.9,23.1,95.9,23.1z M105.9,28.7c0,1.3-1.5,2.1-3.4,2.1c-1.9,0-3.4-0.8-3.4-2.1s1.5-2.1,3.4-2.1
		C104.4,26.6,105.9,27.4,105.9,28.7 M104.3,28.7c0-0.6-0.7-1.2-1.8-1.2s-1.8,0.5-1.8,1.2c0,0.6,0.7,1.2,1.8,1.2
		C103.6,29.9,104.3,29.3,104.3,28.7 M95.7,28.7c0,1.3-1.5,2.1-3.4,2.1c-1.9,0-3.4-0.8-3.4-2.1s1.5-2.1,3.4-2.1
		C94.2,26.6,95.7,27.4,95.7,28.7 M94.2,28.7c0-0.6-0.7-1.2-1.8-1.2s-1.8,0.5-1.8,1.2c0,0.6,0.7,1.2,1.8,1.2
		C93.4,29.9,94.2,29.3,94.2,28.7 M88.6,22h2.9c0.3,0,0.5,0.2,0.5,0.5v2.1h1c0.3,0,0.5-0.2,0.5-0.5v-1.8c0-0.7-0.5-1.2-1.2-1.2h-4.1
		v0.4C88.1,21.8,88.3,22,88.6,22 M116.3,21.1h-0.9v9.4h0.9c0.3,0,0.5-0.2,0.5-0.5v-8.5C116.8,21.3,116.6,21.1,116.3,21.1
		 M121.1,26.1c-1.7,0-2.8-1-2.8-2.5s1.1-2.5,2.8-2.5s2.8,1,2.8,2.5S122.8,26.1,121.1,26.1 M121.1,25.3c0.8,0,1.3-0.6,1.3-1.6
		c0-1-0.5-1.6-1.3-1.6s-1.3,0.6-1.3,1.6C119.8,24.6,120.3,25.3,121.1,25.3 M125.4,26.9h-5.5v0.4c0,0.3,0.2,0.5,0.5,0.5h4.3
		c0.3,0,0.5,0.2,0.5,0.5v2.3h1c0.3,0,0.5-0.2,0.5-0.5v-2C126.6,27.3,126.1,26.9,125.4,26.9 M127.5,23.2c0.3,0,0.5-0.2,0.5-0.5v-0.4
		h-1.4v-0.8c0-0.3-0.2-0.5-0.5-0.5h-1v5.3h1c0.3,0,0.5-0.2,0.5-0.5v-1h0.9c0.3,0,0.5-0.2,0.5-0.5V24h-1.4v-0.8H127.5z M111.8,22
		c0-0.5-0.3-0.9-0.8-0.9h-2.6v0.4c0,0.3,0.2,0.5,0.5,0.5h1.5c-0.2,2.3-1,3.8-2.4,5.1l0.3,0.3c0.2,0.2,0.5,0.2,0.7,0
		c0.6-0.5,1.1-1,1.6-1.6c0.4,0.6,1,1.2,1.6,1.6c0.2,0.2,0.5,0.2,0.7,0c0.2-0.2,0.3-0.3,0.3-0.3c-0.8-0.8-1.4-1.6-1.9-2.6
		C111.5,23.6,111.7,22.8,111.8,22 M114.4,21.1h-0.9v2.5h-1.4V24c0,0.3,0.2,0.5,0.5,0.5h0.9v6.1h0.9c0.3,0,0.5-0.2,0.5-0.5v-8.5
		C114.8,21.3,114.7,21.1,114.4,21.1 M103.2,24.5h2.4c0.3,0,0.5-0.2,0.5-0.5v-0.4h-5.2c-0.3,0-0.5-0.2-0.5-0.5V22h5.1
		c0.3,0,0.5-0.2,0.5-0.5v-0.4h-7v2.2c0,0.7,0.5,1.2,1.2,1.2h1.6v0.8h-4v0.4c0,0.3,0.2,0.5,0.5,0.5h8.5c0.3,0,0.5-0.2,0.5-0.5v-0.4
		h-4V24.5z"/>
	<path class="st1" d="M35.7,7.8c1.1-1,2.1-2,3.2-3.2h-1.3c-0.9,0-1.7,0.3-2.4,1c-0.3,0.3-0.5,0.5-0.8,0.8C30.1,2.3,25.8,0,21.8,0
		c-3.4,0-6.6,1.6-9.8,4.6C11.2,3.8,10.5,3,9.7,2.2C8.5,0.8,7,0,5.1,0H0c2.8,3.3,5.6,6.1,8.5,8.4c-1.4,1.7-2.8,3.6-4.2,5.7h1
		c0.9,0,1.7-0.4,2.2-1.2c0.9-1.3,1.7-2.4,2.5-3.4c4.2,3,8.4,4.6,12.3,4.6c3.2,0,6.4-1.1,9.5-3.1c0.3,0.4,0.5,0.7,0.8,1.1
		c1,1.4,2.3,2.1,4,2.1h4.2C39.1,11.7,37.4,9.6,35.7,7.8 M24.6,11.1c-3.6,0-7.5-1.9-11.3-5.3c2.1-1.9,4.2-2.9,6.5-2.9
		c3.4,0,7.1,2.3,10.7,6.4C28.6,10.5,26.6,11.1,24.6,11.1"/>
	<path class="st0" d="M82.5,7.8V13c0,0.6-0.4,1-1,1h-1.3V7.4c0-0.9-0.5-1.4-1.5-1.4c-0.6,0-0.9,0.1-1.3,0.2v6.8c0,0.6-0.4,1-1,1H75
		V5.3c1-0.5,2.3-0.8,3.8-0.8C81.2,4.5,82.5,5.5,82.5,7.8 M73.2,7.8v5.7c-1,0.5-2.1,0.7-3.4,0.7c-2.4,0-3.9-1.1-3.9-3
		c0-2.6,2.7-3.6,5.1-3.5V7.6c0-1-0.5-1.5-1.7-1.5c-1.1,0-2.1,0.4-2.4,0.6V5c0.7-0.3,1.5-0.5,2.7-0.5C71.9,4.5,73.2,5.5,73.2,7.8
		 M71,9.2c-1.6,0-2.9,0.6-2.9,2.1c0,0.9,0.7,1.5,1.8,1.5c0.4,0,0.8-0.1,1.1-0.2L71,9.2L71,9.2z M52.6,2.1H51c-0.7,0-1.2,0.3-1.6,0.9
		l-2.7,4V2.1h-1.4c-0.6,0-1,0.4-1,1v10.9h1.4c0.6,0,1-0.4,1-1V8.5l3,4.7c0.4,0.6,0.9,0.9,1.6,0.9h1.8l-4.3-6.4L52.6,2.1z M63.2,5.6
		l-1.3,5.2l-1.6-6.2h-1.1c-0.7,0-1.1,0.3-1.3,1l-1.3,5.2l-1.3-5.2c-0.2-0.7-0.6-1-1.3-1h-1.3l2.6,9.4h1.1c0.7,0,1.1-0.3,1.3-1
		L59.2,8l1.7,6.1H62c0.7,0,1.1-0.3,1.3-1l2.3-8.4h-1.1C63.8,4.6,63.4,5,63.2,5.6 M128,5.2v8.6c0,2.4-1.4,3.8-3.9,3.8
		c-1.2,0-2.2-0.2-3-0.6l0.5-1.7c0.7,0.4,1.4,0.5,2.2,0.5c1.3,0,1.9-0.6,1.9-1.8v-0.3c-0.5,0.2-1,0.3-1.6,0.3c-2.3,0-3.8-1.8-3.8-4.6
		c0-3.2,1.7-5.1,4.6-5.1C126.1,4.5,127.1,4.7,128,5.2 M125.7,6.2c-0.2-0.1-0.5-0.2-0.9-0.2c-1.4,0-2.1,1.1-2.1,3.5
		c0,2.2,0.6,3.2,2,3.2c0.4,0,0.8-0.1,1-0.2L125.7,6.2L125.7,6.2z M115.3,4.5c-1.5,0-2.8,0.3-3.8,0.8v8.8h1.3c0.6,0,1-0.4,1-1V6.3
		c0.4-0.1,0.7-0.2,1.3-0.2c1,0,1.5,0.5,1.5,1.4v6.6h1.3c0.6,0,1-0.4,1-1V7.8C118.9,5.5,117.6,4.5,115.3,4.5 M88.5,4.5
		c1.2,0,2.2,0.2,3.1,0.7v8.6c0,2.4-1.4,3.8-3.9,3.8c-1.2,0-2.2-0.2-3-0.6l0.5-1.7c0.7,0.4,1.4,0.5,2.2,0.5c1.3,0,1.9-0.6,1.9-1.8
		v-0.3c-0.5,0.2-1,0.3-1.6,0.3c-2.3,0-3.8-1.8-3.8-4.6C83.9,6.3,85.6,4.5,88.5,4.5 M89.3,6.2C89.1,6.1,88.8,6,88.4,6
		c-1.4,0-2.1,1.1-2.1,3.5c0,2.2,0.6,3.2,2,3.2c0.4,0,0.8-0.1,1-0.2L89.3,6.2L89.3,6.2z M110.1,9.4c0,3-1.5,4.9-4,4.9
		c-2.5,0-4-1.9-4-4.9c0-3.1,1.5-4.9,4-4.9S110.1,6.3,110.1,9.4 M107.8,9.4c0-2.3-0.5-3.3-1.7-3.3c-1.2,0-1.7,1.1-1.7,3.3
		c0,2.2,0.6,3.3,1.7,3.3C107.2,12.7,107.8,11.6,107.8,9.4 M99.3,0.9h1.3v12.6c-0.9,0.5-2.1,0.7-3.3,0.7c-2.8,0-4.4-1.8-4.4-4.8
		c0-3,1.6-4.9,4.1-4.9c0.5,0,0.9,0,1.2,0.1V1.9C98.3,1.3,98.7,0.9,99.3,0.9 M98.3,6.1C98.1,6,97.8,6,97.6,6c-1.9,0-2.3,1.8-2.3,3.4
		c0,2.2,0.7,3.3,2.1,3.3c0.4,0,0.7-0.1,0.9-0.1L98.3,6.1L98.3,6.1z"/>
</g>
</svg>
