<?xml version="1.0" encoding="utf-8"?>
<!-- Generator: Adobe Illustrator 25.3.1, SVG Export Plug-In . SVG Version: 6.00 Build 0)  -->
<svg version="1.1" id="PRINT" xmlns="http://www.w3.org/2000/svg" xmlns:xlink="http://www.w3.org/1999/xlink" x="0px" y="0px"
	 viewBox="0 0 595.3 841.9" style="enable-background:new 0 0 595.3 841.9;" xml:space="preserve">
<style type="text/css">
	.st0{fill:#FFFFFF;}
	.st1{fill:#E38F8B;}
	.st2{fill:#EFBD46;}
	.st3{opacity:0.5;fill:#F3AB4C;}
	.st4{fill:#EFB39E;}
	.st5{fill:#B1DEEA;}
	.st6{fill:#2FC3E5;}
	.st7{fill:#005967;}
	.st8{opacity:0.5;}
	.st9{fill:#D47366;}
	.st10{fill:#333A4E;}
	.st11{fill:#CFE6ED;}
	.st12{fill:#4A4A67;}
	.st13{fill:#FACF76;}
	.st14{fill:#F9D783;}
	.st15{fill:#EF4223;}
</style>
<path class="st0" d="M495.2,603c39,0,70.6-33.5,70.6-74.7c0-39.7-29.3-72.2-66.3-74.6c5-12.8,7.7-26.7,7.7-41.4
	c0-60-46-108.7-102.6-108.7c-16.5,0-32,4.1-45.8,11.4c-11.8-27.3-37.8-46.2-68-46.2c-31.3,0-58,20.3-69.2,49.2
	c-6.5-1.6-13.3-2.5-20.2-2.5c-49.4,0-89.5,42.4-89.5,94.7c0,0.4,0,0.7,0,1.1c-22.3,6.2-39,27-40.3,52.3
	c-28.6,8.1-49.6,35.7-49.6,68.5c0,39.2,30,70.9,67,70.9H495.2z"/>
<g>
	<path class="st1" d="M284.9,574c1.2,0.7,8.7,4.1,14.8,1.2c6.1-2.9,11.2-8.3,14-11.1c1.8-1.8,9.1,2.1,3.6,9
		c-5.5,6.9-15.3,14.8-17.9,15.7c-4.1,1.5-18.2-5.8-18.2-5.8L284.9,574z"/>
</g>
<g>
	<rect x="188.4" y="442.3" class="st2" width="156.7" height="131.1"/>
	<rect x="287.9" y="442.3" class="st3" width="57.2" height="131.1"/>
	<rect x="266.8" y="547.1" class="st3" width="41.5" height="18.1"/>
	<rect x="213.5" y="442.3" class="st3" width="19.7" height="25.7"/>
	<rect x="312.9" y="442.3" class="st3" width="14" height="19.8"/>
</g>
<g>
	<g>
		<polygon class="st4" points="411.2,424.9 418,459.6 409.2,480.9 441.4,455.2 439.8,417.4 		"/>
		<path class="st1" d="M422.8,435.2C422.8,435.3,422.8,435.3,422.8,435.2c-2.7,1.5-5.8,2.5-8.9,3.1l1.4,7.2l8.4-7.9
			C423.4,436.9,423.1,436.1,422.8,435.2z"/>
	</g>
</g>
<g>
	<path class="st5" d="M404.4,603h118.1c0,0-7.8-92.1-81.1-150.8l-30.6,15C410.8,467.3,401,555.7,404.4,603z"/>
	<path class="st6" d="M484,569.4c0.7-22.5-20.9-101.8-33.2-107.7c-17.7,6.1-34.4,85-34.4,85l-8.8-3.5c-0.1,19.3,0.2,40,1.3,57.4
		l3.1,2.5h62.4C478.4,597.8,483.5,587.7,484,569.4z"/>
</g>
<g>
	<path class="st7" d="M447.7,462c0,0-25.1-3.8-25.1-43.5l-41.2-20.8c0,0-12.7-11.4-2.6-25.5c10.1-14.1,49.4-22.6,63.7-2.5
		c14.2,20.1,32.4,64.1,32.4,64.1C480.6,446.8,472.6,461.8,447.7,462z"/>
	<g class="st8">
		<g>
			<path class="st7" d="M468.5,448.2c-11.2,1.6-17.7-17.8-20.6-25.5c-3.2-8.4-5-17.3-8.5-25.6c-1.3-3.1-2.9-5.9-5-8.6
				c-1-1.3-1.8-1.9-2.7-2.3c-0.1-0.3-0.4-0.5-0.7-0.4c-0.1,0-0.1,0-0.2,0.1c-1.2-0.3-2.5-0.3-4.4-0.8c-10.1-2.2-19.9-11.1-23.7-20.5
				c-0.3-0.8-1.6-0.4-1.3,0.3c3,7.7,9.1,13.4,16,17.8c3.1,1.9,6.6,3.2,10.1,3.9c-13.3,2.6-35.5,1.1-38-14.1
				c-0.1-0.8-1.4-0.5-1.3,0.3c2.8,17.1,29,17.9,42.3,14.4c5.7,2,8.2,11.5,9.9,16.3c4,11.3,6.8,22.8,12.6,33.4
				c3.3,6.1,8.1,13.6,15.9,12.5C469.7,449.4,469.3,448.1,468.5,448.2z"/>
			<path class="st7" d="M450.2,398.7c4.8,11.8,9.8,23,15.7,34.3c0.4,0.7,1.5,0.1,1.1-0.7c-7-13.3-12.5-27-18.4-40.8
				c-4.5-10.6-8.8-21.6-19.2-27.7c-0.7-0.4-1.4,0.7-0.7,1.1C440.7,372,445.2,386.6,450.2,398.7z"/>
			<path class="st7" d="M450.2,454c-22.3-5.8-18.8-40.9-20.6-58c-0.1-0.8-1.4-0.8-1.3,0c1.8,17.7-1.6,53.3,21.5,59.3
				C450.7,455.4,451,454.2,450.2,454z"/>
		</g>
	</g>
	<g>
		<path class="st4" d="M422.4,394.9h-21.5c-7.6,0-14.1-4.8-16.7-11.5c-2.9,4.8-4.6,10.3-4.6,16.3v13c0,17.3,14,31.4,31.4,31.4
			c5.4,0,10.4-1.4,14.9-3.8c-2-5.7-3.2-12.8-3.2-21.7h0c-0.1-1-0.2-2-0.2-3.1V394.9z"/>
	</g>
	<g>
		<path class="st4" d="M438.4,425.7c0,4.9-4,8.9-8.9,8.9c-4.9,0-8.9-4-8.9-8.9c0-4.9,4-8.9,8.9-8.9
			C434.4,416.8,438.4,420.8,438.4,425.7z"/>
		<path class="st1" d="M433.5,425.7c0,2.2-1.8,4-4,4c-2.2,0-4-1.8-4-4c0-2.2,1.8-4,4-4C431.7,421.8,433.5,423.5,433.5,425.7z"/>
	</g>
	<g>
		<path class="st1" d="M401.5,414.5c0,2.1-1.7,3.7-3.8,3.7c-2.1,0-3.8-1.7-3.8-3.7c0-2.1,1.7-3.7,3.8-3.7
			C399.8,410.8,401.5,412.4,401.5,414.5z"/>
		<g>
			<path class="st9" d="M396.3,432.2c-1.6,0-3.2-0.6-4.4-1.8c-0.3-0.2-0.3-0.7,0-0.9c0.2-0.3,0.7-0.3,0.9,0c1.4,1.3,3.5,1.7,5.3,1
				c2.6-1,4-3.8,3.1-6.3c-0.1-0.3,0-0.7,0.4-0.8c0.3-0.1,0.7,0,0.8,0.4c1.2,3.2-0.6,6.7-3.9,8C397.9,432.1,397.1,432.2,396.3,432.2z
				"/>
		</g>
		<path class="st1" d="M382.4,422.1c0,2-1.6,3.6-3.6,3.6l0,0c-2,0-3.6-1.6-3.6-3.6l3.7-15.7c2,0,3.6,1.6,3.6,3.6L382.4,422.1z"/>
		<path class="st10" d="M395.7,410.9c0,2-1,3.6-2.2,3.6c-1.2,0-2.2-1.6-2.2-3.6c0-2,1-3.6,2.2-3.6
			C394.7,407.2,395.7,408.9,395.7,410.9z"/>
	</g>
</g>
<g>
	<g>
		<path class="st4" d="M384.2,536.8l-15.9-9.9c0,0-22.5-29.2-31-26.7c-8.6,2.6,11.4,15.6,6.5,19c-4.9,3.4-41.2,0.8-42.7,4.2
			c-2.3,5.2,9.7,8.4,9.7,8.4s0.8,6.1,5.9,8.2c0,0,0.2,5.1,7.1,6.2c6.9,1.1,32.4,2.4,32.4,2.4l11.2,9.7L384.2,536.8z"/>
		<g>
			<g>
				<path class="st1" d="M333.6,534.9c-0.1,0-0.1,0-0.2,0l-22.7-2.5c-0.3,0-0.5-0.3-0.5-0.6c0-0.3,0.3-0.5,0.6-0.5l22.7,2.5
					c0.3,0,0.5,0.3,0.5,0.6C334,534.6,333.8,534.8,333.6,534.9z"/>
			</g>
			<g>
				<path class="st1" d="M330.9,542.1c-0.1,0-0.1,0-0.2,0l-14-1.5c-0.3,0-0.5-0.3-0.5-0.6c0-0.3,0.3-0.5,0.6-0.5l14,1.5
					c0.3,0,0.5,0.3,0.5,0.6C331.2,541.8,331.1,542,330.9,542.1z"/>
			</g>
		</g>
	</g>
	<g>
		<path class="st5" d="M378.6,530.2l-26.5,26.7l57.1,46.1h51.6c0,0,13.5-7.7,14.4-38.4c0.9-30.7-16.1-113.6-33.8-107.5
			c-17.7,6.1-33.7,84.7-33.7,84.7L378.6,530.2z"/>
		<path class="st11" d="M437.4,459.8c-16.1,15-29.7,82.1-29.7,82.1l-29.1-11.7l46.7,29.8L437.4,459.8z"/>
	</g>
</g>
<g>
	<g>
		<g>
			<path class="st12" d="M104,360.1c6,8.7,6.2,21.9-1.1,26.9c-7.4,5.1-19.5,0.1-25.5-8.6c-6-8.7-4.9-19.9,2.5-25
				C87.1,348.4,98,351.3,104,360.1z"/>
			<path class="st10" d="M102.8,387c5.8-4,6.9-12.9,4.2-20.8c-7.3,5.1-12.7,12.5-14.9,22.3C96,389.4,99.8,389.1,102.8,387z"/>
			<path class="st12" d="M177.6,398.4c-1.7,9.5-13.2,17-13.2,17c-6.5,13.5-11.3,25.8-27,25.8c-22.1,0-41.1-18.4-41.1-41
				c0-25.9,19.1-39.4,41.1-40.9C162.2,357.5,182.2,372.7,177.6,398.4z"/>
			<g>
				<path class="st10" d="M162.3,372.2c-6.3,13.2-23.6,17.3-37,16.1c-0.8-0.1-0.8,1.2,0,1.2c13.8,1.2,31.6-3.1,38.1-16.7
					C163.7,372.2,162.7,371.5,162.3,372.2z"/>
				<path class="st10" d="M154.6,367.5c0.8,0,0.8-1.2,0-1.2c-13.6-0.1-24.8,10-30.8,21.5c-5.1,9.5-7.2,24.2-0.9,33.6
					c0.4,0.7,1.5,0,1.1-0.6c-5.8-8.8-3.8-21.7,0.2-30.8C129.3,378.1,141.1,367.4,154.6,367.5z"/>
				<path class="st10" d="M111,390.8c2.5-11.2,8.7-23.5,21.1-25.5c0.8-0.1,0.4-1.3-0.3-1.2c-13,2.2-19.1,14.8-21.9,26.4
					c-3.2,13.2-2.7,29.1,7.7,38.9c0.6,0.5,1.4-0.3,0.9-0.9C108.1,418.9,108.1,403.7,111,390.8z"/>
				<path class="st10" d="M106.2,378.5c-6.5,9.9-6.3,23.6-2.3,34.4c0.3,0.7,1.5,0.4,1.2-0.3c-3.9-10.5-4.2-23.8,2.2-33.5
					C107.7,378.5,106.6,377.9,106.2,378.5z"/>
				<path class="st10" d="M101.6,372.3c0.1,0.8,1.3,0.4,1.2-0.3c-1.3-9.2-7.9-14.2-16-17.7c-0.7-0.3-1.3,0.8-0.6,1.1
					C94,358.6,100.3,363.4,101.6,372.3z"/>
				<path class="st10" d="M84.7,361.1c-0.6-0.6-1.4,0.3-0.9,0.9c4.5,4.6,8,10.2,13.6,13.6c0.7,0.4,1.3-0.6,0.6-1.1
					C92.6,371.1,89.1,365.6,84.7,361.1z"/>
				<path class="st10" d="M95.9,383.6c-9.8-2.3-16.8-11.2-16.9-21.2c0-0.8-1.2-0.8-1.2,0c0.1,10.6,7.5,19.9,17.8,22.4
					C96.3,385,96.6,383.8,95.9,383.6z"/>
			</g>
		</g>
		<path class="st4" d="M176.2,407.7l-0.6-11.6c-0.3-6.1-2.3-11.7-5.5-16.5c-10.7,15.3-35.9,16.5-35.9,16.5s3.7,16.5-1.8,27.6l-7.9-6
			l-2.6,15.1c-0.1,0-0.1,0.1-0.2,0.1c0.1,0.1,0.1,0.1,0.2,0.2l-3.9,22.4l36.8,25.4l-8.9-21.3l1.8-18.2
			C164.5,439.3,177,424.8,176.2,407.7z"/>
		<g>
			<path class="st4" d="M116.7,421c0.1,5,4.2,8.9,9.2,8.8c5-0.1,8.9-4.2,8.8-9.2c-0.1-5-4.2-8.9-9.2-8.8
				C120.6,411.9,116.6,416,116.7,421z"/>
			<path class="st1" d="M121.7,420.9c0,2.2,1.9,4,4.1,3.9c2.2,0,4-1.9,3.9-4.1c0-2.2-1.9-4-4.1-3.9
				C123.4,416.8,121.7,418.7,121.7,420.9z"/>
		</g>
		<g>
			<path class="st1" d="M155.4,412.4c0,1.9,1.7,3.5,3.6,3.4c2,0,3.5-1.6,3.5-3.6c0-1.9-1.7-3.5-3.6-3.5
				C156.9,408.9,155.4,410.5,155.4,412.4z"/>
			<g>
				<path class="st9" d="M160.6,429c1.5,0,3-0.6,4.1-1.7c0.2-0.2,0.2-0.6,0-0.9c-0.2-0.2-0.6-0.2-0.9,0c-1.3,1.3-3.2,1.7-5,1.1
					c-2.5-0.9-3.9-3.5-3-5.8c0.1-0.3-0.1-0.7-0.4-0.8c-0.3-0.1-0.7,0.1-0.8,0.4c-1,3,0.7,6.3,3.8,7.4
					C159.2,428.9,159.9,429,160.6,429z"/>
			</g>
			<path class="st1" d="M173.6,419.2c0,1.9,1.6,3.4,3.5,3.3l0,0c1.9,0,3.4-1.6,3.3-3.5l-3.8-14.7c-1.9,0-3.4,1.6-3.3,3.5
				L173.6,419.2z"/>
			<g>
				<path class="st10" d="M168,411.9c-0.3,0-0.6-0.3-0.6-0.6c0-1.7-1.1-3-2.5-3c-1.4,0-2.5,1.4-2.5,3c0,0.3-0.3,0.6-0.6,0.6
					c-0.3,0-0.6-0.3-0.6-0.6c0-2.4,1.7-4.3,3.7-4.3c2,0,3.7,1.9,3.7,4.3C168.6,411.6,168.4,411.9,168,411.9z"/>
			</g>
		</g>
		<path class="st1" d="M145.4,441.6c-7.8,0.4-15-2.1-20.8-6.4c5.4,4.4,16.9,14,22,18.4l1.2-12.3C147,441.5,146.2,441.6,145.4,441.6z
			"/>
	</g>
	<g>
		<path class="st13" d="M181.9,603H68.6c0,0-23.1-93.7,50.2-152.3l36,30.2C154.8,480.9,185.4,555.7,181.9,603z"/>
		<path class="st2" d="M181.8,585.1l-67.9-103.4c0,0-8.6,10.7-2.5,37.2c7.4,32.3,23.1,67.2,31.2,84.1h39.3
			C182.3,597.4,182.3,591.4,181.8,585.1z"/>
	</g>
	<g>
		<g>
			<path class="st4" d="M248.3,593.1l-2.6-19.5l17-2.7c0,0,12.4-7.8,21.8-4.8c0,0,15.6-10.4,18.7-9.9c2.1,0.4,5.4,3.8,1.8,7.8
				c-3.6,4-13.3,10.8-13.9,11.9c-0.6,1.1,4.3,5.1,10.8,3.3c6.5-1.7,12.6-6,15.9-8.3c2.1-1.4,8.6,3.8,1.8,9.5
				c-6.8,5.7-17.8,11.6-20.6,12c-4.4,0.7-27.9-1.9-27.9-1.9l-22.6,2.8"/>
		</g>
		<g>
			<path class="st13" d="M165.4,603h103.2l-14.1-41.2l-60.8-9.6c0,0-61.7-80.5-79.8-70.4C93.3,493.2,155.3,599,165.4,603z"/>
			<path class="st14" d="M193.7,552.1c0,0-36.4-47.4-61.5-64.9l56.9,76.3l69.1,9.3l-3.8-11.1L193.7,552.1z"/>
		</g>
	</g>
</g>
<path class="st15" d="M317.1,357.9c0-17.8-15.3-32.2-34.1-32.2c-18.8,0-34.1,14.4-34.1,32.2c0,15.6,11.7,28.6,27.3,31.5v13.1
	l9.8-12.6C303.5,388.4,317.1,374.7,317.1,357.9z"/>
<path class="st0" d="M291.2,344.2c-4.9,0-8.9,6.7-8.9,11.6c0-4.9-4-11.6-8.9-11.6c-4.9,0-8.9,4-8.9,8.9c0,8.5,12.5,19.7,17.8,21.9
	c5.3-2.3,17.8-13.4,17.8-21.9C300.1,348.2,296.1,344.2,291.2,344.2z"/>
<path class="st15" d="M548.2,603.6c0,2.9-2.4,5.3-5.3,5.3H53.8c-2.9,0-5.3-2.4-5.3-5.3l0,0c0-2.9,2.4-5.3,5.3-5.3h489.1
	C545.8,598.3,548.2,600.7,548.2,603.6L548.2,603.6z"/>
</svg>
