<?xml version="1.0" encoding="utf-8"?>
<!-- Generator: Adobe Illustrator 25.3.1, SVG Export Plug-In . SVG Version: 6.00 Build 0)  -->
<svg version="1.1" id="Layer_1" xmlns="http://www.w3.org/2000/svg" xmlns:xlink="http://www.w3.org/1999/xlink" x="0px" y="0px"
	 viewBox="0 0 120 29" style="enable-background:new 0 0 120 29;" xml:space="preserve">
<style type="text/css">
	.st0{fill:#FFFFFF;}
</style>
<g>
	<path class="st0" d="M89.9,21.6h1.3V22c0,0.3-0.2,0.4-0.4,0.4h-0.9v1.8c0,0.3-0.2,0.4-0.4,0.4h-0.9v-1c-0.4,0.5-1.1,0.8-2.2,0.8
		h-3.7c-0.3,0-0.4-0.2-0.4-0.4v-0.4h1.5v-2.2h0.9c0.3,0,0.4,0.2,0.4,0.4v1.7h1.2c1.3,0,2.3-0.2,2.3-1.2v-2.8h0.9
		c0.3,0,0.4,0.2,0.4,0.4V21.6z M99.3,26.9c0,1.2-1.4,1.9-3.2,1.9c-1.8,0-3.2-0.7-3.2-1.9c0-1.2,1.4-1.9,3.2-1.9
		C97.9,24.9,99.3,25.7,99.3,26.9 M97.8,26.9c0-0.6-0.7-1.1-1.7-1.1c-1,0-1.7,0.5-1.7,1.1c0,0.6,0.7,1.1,1.7,1.1
		C97.1,28,97.8,27.5,97.8,26.9 M89.7,26.9c0,1.2-1.4,1.9-3.2,1.9c-1.8,0-3.2-0.7-3.2-1.9c0-1.2,1.4-1.9,3.2-1.9
		C88.3,24.9,89.7,25.7,89.7,26.9 M88.3,26.9c0-0.6-0.7-1.1-1.7-1.1c-1,0-1.7,0.5-1.7,1.1c0,0.6,0.7,1.1,1.7,1.1
		C87.6,28,88.3,27.5,88.3,26.9 M83,20.6h2.7c0.3,0,0.4,0.2,0.4,0.4v2h0.9c0.3,0,0.4-0.2,0.4-0.4v-1.7c0-0.7-0.5-1.1-1.1-1.1h-3.8
		v0.4C82.6,20.4,82.8,20.6,83,20.6 M109,19.8h-0.8v8.8h0.8c0.3,0,0.4-0.2,0.4-0.4v-8C109.5,20,109.3,19.8,109,19.8 M113.6,24.5
		c-1.6,0-2.6-0.9-2.6-2.4c0-1.4,1-2.4,2.6-2.4c1.6,0,2.6,0.9,2.6,2.4C116.2,23.6,115.1,24.5,113.6,24.5 M113.6,23.7
		c0.7,0,1.2-0.6,1.2-1.5c0-0.9-0.5-1.5-1.2-1.5c-0.7,0-1.2,0.6-1.2,1.5C112.3,23.1,112.8,23.7,113.6,23.7 M117.5,25.2h-5.1v0.4
		c0,0.3,0.2,0.4,0.4,0.4h4c0.3,0,0.4,0.2,0.4,0.4v2.2h0.9c0.3,0,0.4-0.2,0.4-0.4v-1.9C118.7,25.6,118.2,25.2,117.5,25.2 M119.6,21.8
		c0.3,0,0.4-0.2,0.4-0.4v-0.4h-1.3v-0.7c0-0.3-0.2-0.4-0.4-0.4h-0.9v4.9h0.9c0.3,0,0.4-0.2,0.4-0.4v-0.9h0.9c0.3,0,0.4-0.2,0.4-0.4
		v-0.4h-1.3v-0.8H119.6z M104.8,20.6c0-0.5-0.3-0.8-0.8-0.8h-2.4v0.4c0,0.3,0.2,0.4,0.4,0.4h1.4c-0.1,2.2-1,3.5-2.3,4.8l0.3,0.3
		c0.2,0.2,0.4,0.2,0.7,0c0.5-0.4,1.1-0.9,1.5-1.5c0.4,0.6,0.9,1.1,1.5,1.5c0.2,0.2,0.5,0.2,0.7,0c0.2-0.2,0.3-0.3,0.3-0.3
		c-0.8-0.8-1.4-1.5-1.7-2.5C104.6,22.2,104.7,21.4,104.8,20.6 M107.2,19.8h-0.8v2.3h-1.3v0.4c0,0.3,0.2,0.4,0.4,0.4h0.9v5.7h0.8
		c0.3,0,0.4-0.2,0.4-0.4v-8C107.7,20,107.5,19.8,107.2,19.8 M96.8,23H99c0.3,0,0.4-0.2,0.4-0.4v-0.4h-4.8c-0.3,0-0.4-0.2-0.4-0.4
		v-1.1h4.8c0.3,0,0.4-0.2,0.4-0.4v-0.4h-6.6v2.1c0,0.7,0.5,1.1,1.1,1.1h1.5v0.7h-3.7v0.4c0,0.3,0.2,0.4,0.4,0.4h8
		c0.3,0,0.4-0.2,0.4-0.4v-0.4h-3.7V23z"/>
	<path class="st0" d="M33.5,7.3c1-0.9,2-1.9,3-3h-1.3c-0.9,0-1.6,0.3-2.2,0.9c-0.3,0.3-0.5,0.5-0.8,0.7c-4-3.9-8-6-11.8-6
		c-3.1,0-6.2,1.5-9.2,4.3C10.5,3.6,9.8,2.8,9.1,2C8,0.7,6.5,0,4.8,0H0c2.6,3.1,5.3,5.8,7.9,7.8c-1.3,1.6-2.6,3.4-4,5.3h0.9
		c0.9,0,1.6-0.4,2.1-1.1c0.8-1.2,1.6-2.3,2.4-3.2c3.9,2.8,7.9,4.3,11.6,4.3c3,0,6-1,8.9-3c0.3,0.3,0.5,0.7,0.8,1
		c0.9,1.3,2.2,1.9,3.7,1.9h4C36.7,11,35.1,9,33.5,7.3 M23.1,10.4c-3.4,0-7-1.8-10.6-5c2-1.8,4-2.7,6.1-2.7c3.2,0,6.6,2.2,10,6
		C26.8,9.9,25,10.4,23.1,10.4"/>
	<path class="st0" d="M77.4,7.3v4.9c0,0.6-0.4,1-1,1h-1.2V7c0-0.9-0.5-1.3-1.4-1.3c-0.5,0-0.9,0.1-1.2,0.2v6.4c0,0.6-0.4,1-1,1h-1.2
		V4.9c1-0.5,2.2-0.7,3.6-0.7C76.1,4.2,77.4,5.2,77.4,7.3 M68.6,7.3v5.3c-1,0.5-1.9,0.7-3.2,0.7c-2.3,0-3.6-1-3.6-2.8
		c0-2.4,2.5-3.3,4.8-3.2V7.1c0-1-0.5-1.4-1.6-1.4c-1,0-1.9,0.4-2.3,0.5V4.7c0.6-0.2,1.4-0.5,2.5-0.5C67.4,4.2,68.6,5.2,68.6,7.3
		 M66.6,8.6c-1.5,0-2.7,0.6-2.7,2c0,0.9,0.6,1.4,1.7,1.4c0.4,0,0.8-0.1,1-0.2V8.6z M49.3,2h-1.5c-0.6,0-1.1,0.3-1.5,0.8l-2.5,3.8V2
		h-1.3c-0.6,0-1,0.4-1,1v10.3h1.3c0.6,0,1-0.4,1-1V8l2.8,4.4c0.3,0.5,0.8,0.8,1.5,0.8h1.7l-4-6L49.3,2z M59.3,5.3L58,10.2l-1.5-5.8
		h-1c-0.6,0-1,0.3-1.2,0.9l-1.3,4.9l-1.3-4.9c-0.2-0.6-0.6-0.9-1.2-0.9h-1.2l2.5,8.8h1c0.6,0,1-0.3,1.2-0.9l1.3-4.8l1.6,5.7h1.1
		c0.6,0,1-0.3,1.2-0.9l2.2-7.9h-1.1C59.8,4.4,59.5,4.7,59.3,5.3 M120,4.9V13c0,2.3-1.3,3.6-3.6,3.6c-1.1,0-2-0.2-2.8-0.5l0.4-1.6
		c0.6,0.3,1.3,0.5,2.1,0.5c1.2,0,1.8-0.5,1.8-1.7V13c-0.4,0.2-0.9,0.3-1.5,0.3c-2.2,0-3.6-1.7-3.6-4.3c0-3,1.6-4.8,4.3-4.8
		C118.2,4.2,119.2,4.4,120,4.9 M117.9,5.8c-0.2-0.1-0.5-0.1-0.9-0.1c-1.4,0-2,1.1-2,3.3c0,2.1,0.6,3,1.9,3c0.4,0,0.7-0.1,1-0.2V5.8z
		 M108.1,4.2c-1.4,0-2.7,0.2-3.6,0.7v8.3h1.2c0.6,0,1-0.4,1-1V5.9c0.3-0.1,0.7-0.2,1.2-0.2c0.9,0,1.4,0.4,1.4,1.3v6.2h1.2
		c0.6,0,1-0.4,1-1V7.3C111.5,5.2,110.3,4.2,108.1,4.2 M82.9,4.2c1.1,0,2.1,0.2,2.9,0.7V13c0,2.3-1.3,3.6-3.6,3.6
		c-1.1,0-2-0.2-2.8-0.5l0.4-1.6c0.6,0.3,1.3,0.5,2.1,0.5c1.2,0,1.8-0.5,1.8-1.7V13c-0.4,0.2-0.9,0.3-1.5,0.3c-2.2,0-3.6-1.7-3.6-4.3
		C78.7,5.9,80.2,4.2,82.9,4.2 M83.7,5.8c-0.2-0.1-0.5-0.1-0.9-0.1c-1.3,0-2,1.1-2,3.3c0,2.1,0.6,3,1.9,3c0.4,0,0.7-0.1,1-0.2V5.8z
		 M103.2,8.8c0,2.8-1.4,4.6-3.8,4.6c-2.3,0-3.8-1.8-3.8-4.6c0-2.9,1.4-4.6,3.8-4.6C101.8,4.2,103.2,5.9,103.2,8.8 M101,8.8
		c0-2.2-0.5-3.1-1.6-3.1c-1.1,0-1.6,1-1.6,3.1c0,2.1,0.5,3.1,1.6,3.1C100.5,11.9,101,10.9,101,8.8 M93.1,0.9h1.2v11.8
		c-0.9,0.4-1.9,0.7-3.1,0.7c-2.6,0-4.1-1.7-4.1-4.5c0-2.8,1.5-4.6,3.9-4.6c0.4,0,0.8,0,1.2,0.1V1.8C92.2,1.2,92.6,0.9,93.1,0.9
		 M92.2,5.7c-0.2-0.1-0.5-0.1-0.7-0.1c-1.8,0-2.1,1.7-2.1,3.1c0,2,0.7,3.1,2,3.1c0.4,0,0.7,0,0.9-0.1V5.7z"/>
</g>
</svg>
