<?xml version="1.0" encoding="utf-8"?>
<!-- Generator: Adobe Illustrator 25.3.1, SVG Export Plug-In . SVG Version: 6.00 Build 0)  -->
<svg version="1.1" id="Layer_1" xmlns="http://www.w3.org/2000/svg" xmlns:xlink="http://www.w3.org/1999/xlink" x="0px" y="0px"
	 viewBox="0 0 800 800" style="enable-background:new 0 0 800 800;" xml:space="preserve">
<style type="text/css">
	.st0{fill:#FFFFFF;}
</style>
<path class="st0" d="M675,750H125c-41.4,0-75-33.6-75-75V125c0-41.4,33.6-75,75-75h550c41.4,0,75,33.6,75,75v550
	C750,716.4,716.4,750,675,750z M525.4,201.3C487,183.8,445.2,175,400,175s-87,8.8-125.4,26.3s-68.8,41.4-91.1,71.6
	c-22.3,30.2-33.5,63.1-33.5,98.8c0,34.6,10.6,66.6,31.7,96c21.1,29.5,49.6,53.1,85.5,70.9c-15.8,53.1-24.3,83.3-25.4,90.6v1.1
	c0,0.7,0.2,1.6,0.6,2.5c0.4,0.9,0.9,1.7,1.7,2.2c1.9,0.9,3.8,1,5.9,0.3c4.3-0.6,39.5-23.8,105.7-69.7c15.3,2,30,3.1,44.4,3.1
	c45.4,0,87.2-8.8,125.6-26.3s68.6-41.5,91-71.8c22.3-30.3,33.5-63.3,33.5-98.9c0-35.7-11.2-68.6-33.5-98.8
	C594.2,242.8,563.8,218.9,525.4,201.3L525.4,201.3z"/>
<path class="st0" d="M263.3,434.6c-8,0-14.6-6.2-14.6-13.9V334H226c-7.9,0-14.3-6.4-14.3-14.3s6.4-14.3,14.3-14.3h74.6
	c7.9,0,14.3,6.4,14.3,14.3s-6.4,14.3-14.3,14.3h-22.7v86.6C277.9,428.3,271.3,434.6,263.3,434.6z M391.1,434.4
	c-6.1,0-10.7-2.5-12.1-6.4l-7.2-18.9h-44.5l-7.2,18.9c-1.4,4-6,6.4-12.1,6.4c-3.2,0-6.4-0.7-9.3-2c-4-1.9-7.9-6.9-3.5-20.7
	l34.9-91.8c2.5-7,9.9-14.2,19.4-14.4c9.5,0.2,17,7.4,19.5,14.4l34.9,91.7c4.4,13.8,0.6,18.9-3.4,20.7
	C397.5,433.7,394.3,434.4,391.1,434.4L391.1,434.4L391.1,434.4z M364.1,383.2l-14.6-41.4L335,383.2H364.1L364.1,383.2z M427.3,432.5
	c-7.7,0-14-6-14-13.4v-99c0-8,6.7-14.6,14.9-14.6s14.9,6.5,14.9,14.6v85.6h31c7.7,0,14,6,14,13.4s-6.3,13.4-14,13.4L427.3,432.5
	L427.3,432.5z M508.3,434.4c-8,0-14.6-6.5-14.6-14.6v-99.7c0-8,6.5-14.6,14.6-14.6c8,0,14.6,6.5,14.6,14.6v31.3l40.7-40.7
	c2.1-2.1,5-3.2,8.1-3.2c3.6,0,7.3,1.6,10,4.3c2.6,2.6,4.1,5.8,4.3,9.2c0.2,3.4-0.9,6.6-3.2,8.9l-33.2,33.2l35.9,47.5
	c2.3,3.1,3.4,7,2.8,10.8c-0.5,3.8-2.6,7.3-5.6,9.6c-2.5,1.9-5.6,3-8.8,2.9c-4.6,0-8.9-2.1-11.6-5.8l-34.2-45.3l-5.1,5.1v31.8
	C522.9,427.9,516.3,434.4,508.3,434.4L508.3,434.4z"/>
</svg>
