<?xml version="1.0" encoding="utf-8"?>
<!-- Generator: Adobe Illustrator 25.3.1, SVG Export Plug-In . SVG Version: 6.00 Build 0)  -->
<svg version="1.1" id="Layer_1" xmlns="http://www.w3.org/2000/svg" xmlns:xlink="http://www.w3.org/1999/xlink" x="0px" y="0px"
	 viewBox="0 0 800 800" style="enable-background:new 0 0 800 800;" xml:space="preserve">
<style type="text/css">
	.st0{fill:#FFFFFF;}
</style>
<g>
	<polygon class="st0" points="334.5,476.9 465.5,400.1 334.5,323.2 	"/>
	<path class="st0" d="M675,50H125c-41.4,0-75,33.6-75,75v550c0,41.4,33.6,75,75,75h550c41.4,0,75-33.6,75-75V125
		C750,83.6,716.4,50,675,50z M600,471.5c0,68.9-68.9,68.9-68.9,68.9H268.9c-68.9,0-68.9-68.9-68.9-68.9v-143
		c0-68.9,68.9-68.9,68.9-68.9h262.2c68.9,0,68.9,68.9,68.9,68.9V471.5z"/>
</g>
</svg>
