<?xml version="1.0" encoding="utf-8"?>
<!-- Generator: Adobe Illustrator 25.3.1, SVG Export Plug-In . SVG Version: 6.00 Build 0)  -->
<svg version="1.1" id="Layer_1" xmlns="http://www.w3.org/2000/svg" xmlns:xlink="http://www.w3.org/1999/xlink" x="0px" y="0px"
	 viewBox="0 0 30 30" style="enable-background:new 0 0 30 30;" xml:space="preserve">
<style type="text/css">
	.st0{fill:#FFFFFF;}
</style>
<path class="st0" d="M24.1,0H6.2C3,0,0.3,2.7,0.3,5.9v17.8c0,3.3,2.7,5.9,5.9,5.9h17.8c3.3,0,5.9-2.7,5.9-5.9V5.9
	C30,2.7,27.3,0,24.1,0z M27.9,15.9c0,2.2-1.8,4-4,4h-6l-2,3.3c0,0,0,0-0.1,0.1c-0.1,0.2-0.3,0.3-0.6,0.3c-0.3,0-0.5-0.1-0.6-0.3
	c0-0.1-0.1-0.1-0.1-0.1l-2-3.3h-6c-2.2,0-4-1.8-4-4V6.3c0-2.2,1.8-4,4-4h17.4c2.2,0,4,1.8,4,4V15.9z"/>
<g>
	<g>
		<path class="st0" d="M8.1,9.3c0,0-0.7,0-1.3,0.6V7.4H5.2v6.5h1.6v-0.5c0,0,0.4,0.7,1.3,0.7c0,0,2.2-0.1,2.2-2.4
			C10.3,11.7,10.2,9.3,8.1,9.3z M7.7,12.7c-0.6,0-1-0.4-1-1c0-0.6,0.4-1,1-1c0.6,0,1,0.4,1,1C8.7,12.3,8.3,12.7,7.7,12.7z"/>
		<path class="st0" d="M10.8,7.3v1.5c0,0,0.7,0,0.7,1.3v3.8H13V9.7C13,9.7,13,7.3,10.8,7.3z"/>
		<path class="st0" d="M16.7,9.3c0,0-2.6,0-2.6,2.4c0,0-0.1,2.4,2.6,2.4c0,0,2.6,0,2.6-2.4C19.3,11.7,19.4,9.3,16.7,9.3z M16.7,12.7
			c-0.6,0-1-0.4-1-1c0-0.6,0.4-1,1-1c0.6,0,1,0.4,1,1C17.7,12.3,17.2,12.7,16.7,12.7z"/>
		<path class="st0" d="M23.6,9.5v0.4c0,0-0.4-0.6-1.3-0.6c0,0-2.2-0.1-2.2,2.4c0,0,0,2.3,2.1,2.3c0,0,0.9,0,1.4-0.6v0.4
			c0,0,0.1,1.1-1,1.1h-0.4v1.4h0.6c0,0,2.3,0,2.3-2.4V9.5H23.6z M22.7,12.7c-0.6,0-1-0.4-1-1c0-0.6,0.4-1,1-1c0.6,0,1,0.4,1,1
			C23.7,12.3,23.2,12.7,22.7,12.7z"/>
	</g>
</g>
</svg>
