<?xml version="1.0" encoding="utf-8"?>
<!-- Generator: Adobe Illustrator 25.3.1, SVG Export Plug-In . SVG Version: 6.00 Build 0)  -->
<svg version="1.1" id="Layer_1" xmlns="http://www.w3.org/2000/svg" xmlns:xlink="http://www.w3.org/1999/xlink" x="0px" y="0px"
	 viewBox="0 0 800 800" style="enable-background:new 0 0 800 800;" xml:space="preserve">
<style type="text/css">
	.st0{fill:#FFFFFF;}
</style>
<g>
	<path class="st0" d="M675,50H125c-41.4,0-75,33.6-75,75v550c0,41.4,33.6,75,75,75h550c41.4,0,75-33.6,75-75V125
		C750,83.6,716.4,50,675,50z M400,606.1c-113.6,0-206.1-92.4-206.1-206.1c0-113.6,92.4-206.1,206.1-206.1S606.1,286.3,606.1,400
		S513.6,606.1,400,606.1z M674.1,206.2c-9.7,9.6-23.1,15.2-36.8,15.2s-27.1-5.5-36.8-15.2c-9.7-9.7-15.3-23.1-15.3-36.8
		c0-13.7,5.6-27.1,15.3-36.8c9.7-9.7,23.1-15.2,36.8-15.2s27.1,5.5,36.8,15.2c9.7,9.6,15.2,23.1,15.2,36.8
		C689.3,183.1,683.8,196.5,674.1,206.2z"/>
	<path class="st0" d="M400,264.9c-74.6,0-135.2,60.7-135.2,135.2S325.5,535.2,400,535.2S535.2,474.5,535.2,400
		S474.6,264.9,400,264.9z"/>
</g>
</svg>
